<svg xmlns="http://www.w3.org/2000/svg" xmlns:xlink="http://www.w3.org/1999/xlink" width="2051" zoomAndPan="magnify" viewBox="0 0 1538.25 504.749982" height="673" preserveAspectRatio="xMidYMid meet" version="1.0"><defs><g/><clipPath id="0c79e98ffb"><path d="M 1 5 L 501 5 L 501 503.75 L 1 503.75 Z M 1 5 " clip-rule="nonzero"/></clipPath><clipPath id="d9e0ecf7c2"><path d="M 215.027344 215.023438 L 288.738281 215.023438 L 288.738281 288.730469 L 215.027344 288.730469 Z M 215.027344 215.023438 " clip-rule="nonzero"/></clipPath><clipPath id="1441135bef"><path d="M 251.882812 215.023438 C 231.527344 215.023438 215.027344 231.523438 215.027344 251.878906 C 215.027344 272.230469 231.527344 288.730469 251.882812 288.730469 C 272.238281 288.730469 288.738281 272.230469 288.738281 251.878906 C 288.738281 231.523438 272.238281 215.023438 251.882812 215.023438 Z M 251.882812 215.023438 " clip-rule="nonzero"/></clipPath><clipPath id="cfb8815812"><path d="M 0.0273438 0.0234375 L 73.738281 0.0234375 L 73.738281 73.730469 L 0.0273438 73.730469 Z M 0.0273438 0.0234375 " clip-rule="nonzero"/></clipPath><clipPath id="fb51d5cdef"><path d="M 36.882812 0.0234375 C 16.527344 0.0234375 0.0273438 16.523438 0.0273438 36.878906 C 0.0273438 57.230469 16.527344 73.730469 36.882812 73.730469 C 57.238281 73.730469 73.738281 57.230469 73.738281 36.878906 C 73.738281 16.523438 57.238281 0.0234375 36.882812 0.0234375 Z M 36.882812 0.0234375 " clip-rule="nonzero"/></clipPath><clipPath id="e6f7a8d0c1"><rect x="0" width="74" y="0" height="74"/></clipPath><clipPath id="e2c54af6b5"><rect x="0" width="940" y="0" height="278"/></clipPath><clipPath id="2d4d7c1612"><rect x="0" width="968" y="0" height="139"/></clipPath></defs><g clip-path="url(#0c79e98ffb)"><path fill="#4f46e5" d="M 308.273438 290.90625 L 500.824219 255.386719 L 307.027344 222.363281 L 359.996094 145.714844 L 285.839844 198.683594 L 250.945312 5.507812 L 217.917969 199.929688 L 141.894531 145.714844 L 194.238281 222.363281 L 1.6875 255.386719 L 194.238281 290.90625 L 141.894531 364.4375 L 217.917969 312.09375 L 250.945312 504.644531 L 286.464844 313.339844 L 359.996094 364.4375 Z M 308.273438 290.90625 " fill-opacity="1" fill-rule="nonzero"/></g><g clip-path="url(#d9e0ecf7c2)"><g clip-path="url(#1441135bef)"><g transform="matrix(1, 0, 0, 1, 215, 215)"><g clip-path="url(#e6f7a8d0c1)"><g clip-path="url(#cfb8815812)"><g clip-path="url(#fb51d5cdef)"><path fill="#ffffff" d="M 0.0273438 0.0234375 L 73.738281 0.0234375 L 73.738281 73.730469 L 0.0273438 73.730469 Z M 0.0273438 0.0234375 " fill-opacity="1" fill-rule="nonzero"/></g></g></g></g></g></g><g transform="matrix(1, 0, 0, 1, 516, 77)"><g clip-path="url(#e2c54af6b5)"><g fill="#0f172a" fill-opacity="1"><g transform="translate(0.442191, 203.411472)"><g><path d="M 53.984375 0 L 9.8125 0 L 9.8125 -164.40625 L 79.265625 -164.40625 C 93.171875 -164.40625 105.601562 -162.359375 116.5625 -158.265625 C 127.519531 -154.179688 136.1875 -147.679688 142.5625 -138.765625 C 148.945312 -129.847656 152.140625 -118.03125 152.140625 -103.3125 C 152.140625 -88.582031 148.988281 -76.71875 142.6875 -67.71875 C 136.394531 -58.726562 127.765625 -52.1875 116.796875 -48.09375 C 105.835938 -44.007812 93.328125 -41.96875 79.265625 -41.96875 L 53.984375 -41.96875 Z M 79.75 -125.15625 L 53.984375 -125.15625 L 53.984375 -81.21875 L 79.75 -81.21875 C 96.925781 -81.21875 105.515625 -88.582031 105.515625 -103.3125 C 105.515625 -117.875 96.925781 -125.15625 79.75 -125.15625 Z M 79.75 -125.15625 "/></g></g></g><g fill="#0f172a" fill-opacity="1"><g transform="translate(140.290072, 203.411472)"><g><path d="M 90.796875 1.96875 C 78.359375 1.96875 66.945312 -0.195312 56.5625 -4.53125 C 46.175781 -8.875 37.21875 -14.890625 29.6875 -22.578125 C 22.164062 -30.265625 16.359375 -39.21875 12.265625 -49.4375 C 8.179688 -59.664062 6.140625 -70.671875 6.140625 -82.453125 C 6.140625 -94.234375 8.179688 -105.234375 12.265625 -115.453125 C 16.359375 -125.679688 22.164062 -134.640625 29.6875 -142.328125 C 37.21875 -150.015625 46.175781 -156.023438 56.5625 -160.359375 C 66.945312 -164.691406 78.359375 -166.859375 90.796875 -166.859375 C 103.390625 -166.859375 114.835938 -164.691406 125.140625 -160.359375 C 135.453125 -156.023438 144.367188 -150.015625 151.890625 -142.328125 C 159.421875 -134.640625 165.226562 -125.679688 169.3125 -115.453125 C 173.40625 -105.234375 175.453125 -94.234375 175.453125 -82.453125 C 175.453125 -70.671875 173.40625 -59.664062 169.3125 -49.4375 C 165.226562 -39.21875 159.421875 -30.265625 151.890625 -22.578125 C 144.367188 -14.890625 135.453125 -8.875 125.140625 -4.53125 C 114.835938 -0.195312 103.390625 1.96875 90.796875 1.96875 Z M 90.796875 -40.984375 C 103.554688 -40.984375 113.082031 -44.90625 119.375 -52.75 C 125.675781 -60.601562 128.828125 -70.503906 128.828125 -82.453125 C 128.828125 -94.390625 125.675781 -104.285156 119.375 -112.140625 C 113.082031 -119.992188 103.554688 -123.921875 90.796875 -123.921875 C 78.035156 -123.921875 68.503906 -119.992188 62.203125 -112.140625 C 55.910156 -104.285156 52.765625 -94.390625 52.765625 -82.453125 C 52.765625 -70.503906 55.910156 -60.601562 62.203125 -52.75 C 68.503906 -44.90625 78.035156 -40.984375 90.796875 -40.984375 Z M 90.796875 -40.984375 "/></g></g></g><g fill="#0f172a" fill-opacity="1"><g transform="translate(304.673898, 203.411472)"><g><path d="M 133.25 0 L 9.8125 0 L 9.8125 -164.40625 L 53.984375 -164.40625 L 53.984375 -39.265625 L 133.25 -39.265625 Z M 133.25 0 "/></g></g></g><g fill="#0f172a" fill-opacity="1"><g transform="translate(423.175478, 203.411472)"><g><path d="M 48.34375 0 L 1.234375 0 L 59.390625 -164.40625 L 120.984375 -164.40625 L 179.140625 0 L 130.796875 0 L 120.734375 -30.671875 L 58.40625 -30.671875 Z M 78.53125 -91.53125 L 70.671875 -67.484375 L 108.46875 -67.484375 L 100.609375 -91.53125 L 89.5625 -132.75 Z M 78.53125 -91.53125 "/></g></g></g><g fill="#0f172a" fill-opacity="1"><g transform="translate(586.33246, 203.411472)"><g><path d="M 53.984375 0 L 9.8125 0 L 9.8125 -164.40625 L 88.59375 -164.40625 C 101.34375 -164.40625 112.664062 -162.644531 122.5625 -159.125 C 132.46875 -155.613281 140.238281 -150.050781 145.875 -142.4375 C 151.519531 -134.832031 154.34375 -124.976562 154.34375 -112.875 C 154.34375 -102.40625 152.175781 -93.734375 147.84375 -86.859375 C 143.507812 -79.992188 137.617188 -74.800781 130.171875 -71.28125 C 122.734375 -67.769531 114.351562 -65.601562 105.03125 -64.78125 C 113.53125 -62.65625 120.070312 -59.140625 124.65625 -54.234375 C 129.238281 -49.328125 133.578125 -43.597656 137.671875 -37.046875 L 161.21875 0 L 110.921875 0 L 83.671875 -43.921875 C 80.398438 -49.316406 76.882812 -53.160156 73.125 -55.453125 C 69.363281 -57.742188 64.128906 -58.890625 57.421875 -58.890625 L 53.984375 -58.890625 Z M 89.078125 -125.15625 L 53.984375 -125.15625 L 53.984375 -94.234375 L 89.078125 -94.234375 C 101.503906 -94.234375 107.71875 -99.382812 107.71875 -109.6875 C 107.71875 -120 101.503906 -125.15625 89.078125 -125.15625 Z M 89.078125 -125.15625 "/></g></g></g><g fill="#0f172a" fill-opacity="1"><g transform="translate(732.804993, 203.411472)"><g><path d="M 53.984375 0 L 9.8125 0 L 9.8125 -164.40625 L 53.984375 -164.40625 Z M 53.984375 0 "/></g></g></g><g fill="#0f172a" fill-opacity="1"><g transform="translate(779.416458, 203.411472)"><g><path d="M 85.890625 2.453125 C 70.015625 2.453125 54.960938 0.0820312 40.734375 -4.65625 C 26.503906 -9.40625 14.726562 -16.6875 5.40625 -26.5 L 32.875 -62.078125 C 39.75 -53.734375 48.335938 -47.4375 58.640625 -43.1875 C 68.953125 -38.9375 78.851562 -36.8125 88.34375 -36.8125 C 94.0625 -36.8125 98.554688 -37.546875 101.828125 -39.015625 C 105.109375 -40.484375 106.75 -42.9375 106.75 -46.375 C 106.75 -50.632812 104.457031 -53.945312 99.875 -56.3125 C 95.289062 -58.6875 87.519531 -60.9375 76.5625 -63.0625 L 60.125 -66.25 C 50.800781 -68.050781 42.210938 -70.789062 34.359375 -74.46875 C 26.503906 -78.15625 20.203125 -83.3125 15.453125 -89.9375 C 10.710938 -96.5625 8.34375 -105.023438 8.34375 -115.328125 C 8.34375 -126.453125 11.242188 -135.816406 17.046875 -143.421875 C 22.859375 -151.035156 30.710938 -156.765625 40.609375 -160.609375 C 50.503906 -164.453125 61.507812 -166.375 73.625 -166.375 C 89.65625 -166.375 103.925781 -163.835938 116.4375 -158.765625 C 128.945312 -153.691406 139.296875 -147.066406 147.484375 -138.890625 L 120.234375 -103.796875 C 113.691406 -110.671875 105.632812 -116.273438 96.0625 -120.609375 C 86.5 -124.941406 77.300781 -127.109375 68.46875 -127.109375 C 64.207031 -127.109375 60.6875 -126.375 57.90625 -124.90625 C 55.125 -123.4375 53.734375 -121.226562 53.734375 -118.28125 C 53.734375 -113.695312 56.023438 -110.34375 60.609375 -108.21875 C 65.191406 -106.09375 71.488281 -104.128906 79.5 -102.328125 L 98.890625 -97.90625 C 116.890625 -93.820312 130.265625 -87.8125 139.015625 -79.875 C 147.765625 -71.9375 152.140625 -61.179688 152.140625 -47.609375 C 152.140625 -36.484375 149.234375 -27.195312 143.421875 -19.75 C 137.617188 -12.3125 129.726562 -6.75 119.75 -3.0625 C 109.769531 0.613281 98.484375 2.453125 85.890625 2.453125 Z M 85.890625 2.453125 "/></g></g></g></g></g><g transform="matrix(1, 0, 0, 1, 518, 292)"><g clip-path="url(#2d4d7c1612)"><g fill="#4f46e5" fill-opacity="1"><g transform="translate(7.468185, 111.13932)"><g><path d="M 26.171875 0 L 1.65625 -81.734375 L 20.328125 -81.734375 L 31.03125 -46.28125 C 31.769531 -43.851562 32.46875 -41.296875 33.125 -38.609375 C 33.789062 -35.921875 34.457031 -32.550781 35.125 -28.5 C 35.789062 -32.550781 36.453125 -35.898438 37.109375 -38.546875 C 37.773438 -41.203125 38.472656 -43.78125 39.203125 -46.28125 L 49.265625 -81.734375 L 69.25 -81.734375 L 78.859375 -46.28125 C 79.523438 -43.78125 80.1875 -41.164062 80.84375 -38.4375 C 81.507812 -35.707031 82.210938 -32.394531 82.953125 -28.5 C 83.765625 -32.625 84.5 -35.992188 85.15625 -38.609375 C 85.820312 -41.222656 86.523438 -43.707031 87.265625 -46.0625 L 98.1875 -81.734375 L 116.421875 -81.734375 L 91.453125 0 L 74 0 L 59.09375 -53.6875 L 43.734375 0 Z M 26.171875 0 "/></g></g></g><g fill="#4f46e5" fill-opacity="1"><g transform="translate(149.293165, 111.13932)"><g><path d="M 60.421875 0 L 8.5 0 L 8.5 -81.734375 L 60.421875 -81.734375 L 60.421875 -65.171875 L 26.390625 -65.171875 L 26.390625 -49.15625 L 56.546875 -49.15625 L 56.546875 -33.46875 L 26.390625 -33.46875 L 26.390625 -16.5625 L 60.421875 -16.5625 Z M 60.421875 0 "/></g></g></g><g fill="#4f46e5" fill-opacity="1"><g transform="translate(239.645732, 111.13932)"><g><path d="M 8.5 0 L 8.5 -81.734375 L 42.53125 -81.734375 C 50.769531 -81.734375 57.226562 -79.707031 61.90625 -75.65625 C 66.582031 -71.601562 68.921875 -66.082031 68.921875 -59.09375 C 68.921875 -50.1875 65.128906 -44.070312 57.546875 -40.75 C 65.796875 -38.03125 69.921875 -31.957031 69.921875 -22.53125 C 69.921875 -15.3125 67.5625 -9.75 62.84375 -5.84375 C 58.132812 -1.945312 51.363281 0 42.53125 0 Z M 40.640625 -66.046875 L 26.390625 -66.046875 L 26.390625 -48.265625 L 40.640625 -48.265625 C 47.273438 -48.265625 50.59375 -51.285156 50.59375 -57.328125 C 50.59375 -63.140625 47.273438 -66.046875 40.640625 -66.046875 Z M 41.53125 -33.25 L 26.390625 -33.25 L 26.390625 -15.6875 L 41.53125 -15.6875 C 48.226562 -15.6875 51.578125 -18.703125 51.578125 -24.734375 C 51.578125 -30.410156 48.226562 -33.25 41.53125 -33.25 Z M 41.53125 -33.25 "/></g></g></g><g fill="#4f46e5" fill-opacity="1"><g transform="translate(336.84654, 111.13932)"><g/></g></g><g fill="#4f46e5" fill-opacity="1"><g transform="translate(389.865035, 111.13932)"><g><path d="M 3.96875 -57.984375 C 3.96875 -62.921875 5.253906 -67.285156 7.828125 -71.078125 C 10.410156 -74.867188 13.96875 -77.847656 18.5 -80.015625 C 23.03125 -82.191406 28.203125 -83.28125 34.015625 -83.28125 C 39.910156 -83.28125 44.992188 -82.25 49.265625 -80.1875 C 53.535156 -78.125 56.828125 -75.210938 59.140625 -71.453125 C 61.460938 -67.703125 62.625 -63.25 62.625 -58.09375 L 44.84375 -58.09375 C 44.84375 -60.96875 43.847656 -63.234375 41.859375 -64.890625 C 39.867188 -66.546875 37.179688 -67.375 33.796875 -67.375 C 30.191406 -67.375 27.300781 -66.597656 25.125 -65.046875 C 22.957031 -63.503906 21.875 -61.375 21.875 -58.65625 C 21.875 -56.144531 22.535156 -54.226562 23.859375 -52.90625 C 25.179688 -51.582031 27.28125 -50.625 30.15625 -50.03125 L 42.40625 -47.5 C 49.695312 -46.019531 55.109375 -43.457031 58.640625 -39.8125 C 62.179688 -36.164062 63.953125 -31.101562 63.953125 -24.625 C 63.953125 -19.394531 62.660156 -14.8125 60.078125 -10.875 C 57.503906 -6.9375 53.878906 -3.898438 49.203125 -1.765625 C 44.523438 0.367188 39.054688 1.4375 32.796875 1.4375 C 26.765625 1.4375 21.484375 0.40625 16.953125 -1.65625 C 12.421875 -3.71875 8.921875 -6.644531 6.453125 -10.4375 C 3.992188 -14.226562 2.765625 -18.664062 2.765625 -23.75 L 20.546875 -23.75 C 20.546875 -20.800781 21.613281 -18.515625 23.75 -16.890625 C 25.882812 -15.273438 28.941406 -14.46875 32.921875 -14.46875 C 36.960938 -14.46875 40.160156 -15.222656 42.515625 -16.734375 C 44.878906 -18.242188 46.0625 -20.285156 46.0625 -22.859375 C 46.0625 -25.140625 45.488281 -26.90625 44.34375 -28.15625 C 43.207031 -29.414062 41.273438 -30.300781 38.546875 -30.8125 L 26.0625 -33.359375 C 11.332031 -36.378906 3.96875 -44.585938 3.96875 -57.984375 Z M 3.96875 -57.984375 "/></g></g></g><g fill="#4f46e5" fill-opacity="1"><g transform="translate(480.880249, 111.13932)"><g><path d="M 2.203125 -65.171875 L 2.203125 -81.734375 L 66.5 -81.734375 L 66.5 -65.171875 L 43.296875 -65.171875 L 43.296875 0 L 25.40625 0 L 25.40625 -65.171875 Z M 2.203125 -65.171875 "/></g></g></g><g fill="#4f46e5" fill-opacity="1"><g transform="translate(573.331433, 111.13932)"><g><path d="M 7.953125 -30.703125 L 7.953125 -81.734375 L 25.84375 -81.734375 L 25.84375 -31.921875 C 25.84375 -26.765625 27.203125 -22.820312 29.921875 -20.09375 C 32.648438 -17.375 36.519531 -16.015625 41.53125 -16.015625 C 46.613281 -16.015625 50.535156 -17.410156 53.296875 -20.203125 C 56.054688 -23.003906 57.4375 -26.910156 57.4375 -31.921875 L 57.4375 -81.734375 L 75.328125 -81.734375 L 75.328125 -30.703125 C 75.328125 -24.222656 73.945312 -18.585938 71.1875 -13.796875 C 68.425781 -9.015625 64.503906 -5.296875 59.421875 -2.640625 C 54.335938 0.00390625 48.375 1.328125 41.53125 1.328125 C 34.757812 1.328125 28.847656 0.0195312 23.796875 -2.59375 C 18.753906 -5.207031 14.851562 -8.925781 12.09375 -13.75 C 9.332031 -18.570312 7.953125 -24.222656 7.953125 -30.703125 Z M 7.953125 -30.703125 "/></g></g></g><g fill="#4f46e5" fill-opacity="1"><g transform="translate(680.362815, 111.13932)"><g><path d="M 40.53125 0 L 8.5 0 L 8.5 -81.734375 L 39.4375 -81.734375 C 47.457031 -81.734375 54.503906 -80.003906 60.578125 -76.546875 C 66.660156 -73.085938 71.429688 -68.265625 74.890625 -62.078125 C 78.347656 -55.890625 80.078125 -48.742188 80.078125 -40.640625 C 80.078125 -32.691406 78.398438 -25.660156 75.046875 -19.546875 C 71.703125 -13.429688 67.066406 -8.644531 61.140625 -5.1875 C 55.210938 -1.726562 48.34375 0 40.53125 0 Z M 37.671875 -65.171875 L 26.390625 -65.171875 L 26.390625 -16.5625 L 38.765625 -16.5625 C 45.835938 -16.5625 51.34375 -18.675781 55.28125 -22.90625 C 59.21875 -27.144531 61.1875 -33.054688 61.1875 -40.640625 C 61.1875 -48.378906 59.125 -54.398438 55 -58.703125 C 50.875 -63.015625 45.097656 -65.171875 37.671875 -65.171875 Z M 37.671875 -65.171875 "/></g></g></g><g fill="#4f46e5" fill-opacity="1"><g transform="translate(788.167379, 111.13932)"><g><path d="M 26.390625 -81.734375 L 26.390625 0 L 8.5 0 L 8.5 -81.734375 Z M 26.390625 -81.734375 "/></g></g></g><g fill="#4f46e5" fill-opacity="1"><g transform="translate(846.819075, 111.13932)"><g><path d="M 84.0625 -40.984375 C 84.0625 -32.660156 82.363281 -25.3125 78.96875 -18.9375 C 75.582031 -12.570312 70.867188 -7.601562 64.828125 -4.03125 C 58.796875 -0.457031 51.800781 1.328125 43.84375 1.328125 C 35.96875 1.328125 29.03125 -0.457031 23.03125 -4.03125 C 17.03125 -7.601562 12.351562 -12.554688 9 -18.890625 C 5.644531 -25.222656 3.96875 -32.550781 3.96875 -40.875 C 3.96875 -49.1875 5.660156 -56.523438 9.046875 -62.890625 C 12.441406 -69.265625 17.140625 -74.238281 23.140625 -77.8125 C 29.140625 -81.382812 36.078125 -83.171875 43.953125 -83.171875 C 51.910156 -83.171875 58.890625 -81.382812 64.890625 -77.8125 C 70.890625 -74.238281 75.582031 -69.285156 78.96875 -62.953125 C 82.363281 -56.617188 84.0625 -49.296875 84.0625 -40.984375 Z M 65.171875 -40.984375 C 65.171875 -48.785156 63.289062 -54.894531 59.53125 -59.3125 C 55.78125 -63.726562 50.628906 -65.9375 44.078125 -65.9375 C 37.441406 -65.9375 32.242188 -63.726562 28.484375 -59.3125 C 24.734375 -54.894531 22.859375 -48.785156 22.859375 -40.984375 C 22.859375 -33.171875 24.734375 -27.035156 28.484375 -22.578125 C 32.242188 -18.128906 37.441406 -15.90625 44.078125 -15.90625 C 50.628906 -15.90625 55.78125 -18.148438 59.53125 -22.640625 C 63.289062 -27.128906 65.171875 -33.242188 65.171875 -40.984375 Z M 65.171875 -40.984375 "/></g></g></g></g></g></svg>