<svg xmlns="http://www.w3.org/2000/svg" xmlns:xlink="http://www.w3.org/1999/xlink" width="2001" zoomAndPan="magnify" viewBox="0 0 1500.75 1500.749933" height="2001" preserveAspectRatio="xMidYMid meet" version="1.0"><defs><g/><clipPath id="5709047128"><path d="M 0 0 L 1500.351562 0 L 1500.351562 1500.351562 L 0 1500.351562 Z M 0 0 " clip-rule="nonzero"/></clipPath><clipPath id="c28023baec"><path d="M 750.175781 0 C 335.863281 0 0 335.863281 0 750.175781 C 0 1164.484375 335.863281 1500.351562 750.175781 1500.351562 C 1164.484375 1500.351562 1500.351562 1164.484375 1500.351562 750.175781 C 1500.351562 335.863281 1164.484375 0 750.175781 0 Z M 750.175781 0 " clip-rule="nonzero"/></clipPath><clipPath id="dd10449a33"><path d="M 0 0 L 1500.351562 0 L 1500.351562 1500.351562 L 0 1500.351562 Z M 0 0 " clip-rule="nonzero"/></clipPath><clipPath id="33153bc5e9"><path d="M 750.175781 0 C 335.863281 0 0 335.863281 0 750.175781 C 0 1164.484375 335.863281 1500.351562 750.175781 1500.351562 C 1164.484375 1500.351562 1500.351562 1164.484375 1500.351562 750.175781 C 1500.351562 335.863281 1164.484375 0 750.175781 0 Z M 750.175781 0 " clip-rule="nonzero"/></clipPath><clipPath id="fc72cf82d6"><rect x="0" width="1501" y="0" height="1501"/></clipPath><clipPath id="d831469536"><path d="M 25.097656 24.496094 L 1475.855469 24.496094 L 1475.855469 1475.253906 L 25.097656 1475.253906 Z M 25.097656 24.496094 " clip-rule="nonzero"/></clipPath><clipPath id="8ff0468f04"><path d="M 750.476562 24.496094 C 349.859375 24.496094 25.097656 349.257812 25.097656 749.875 C 25.097656 1150.492188 349.859375 1475.253906 750.476562 1475.253906 C 1151.09375 1475.253906 1475.855469 1150.492188 1475.855469 749.875 C 1475.855469 349.257812 1151.09375 24.496094 750.476562 24.496094 Z M 750.476562 24.496094 " clip-rule="nonzero"/></clipPath><clipPath id="d7fc36ccfc"><path d="M 0.0976562 0.496094 L 1450.855469 0.496094 L 1450.855469 1451.253906 L 0.0976562 1451.253906 Z M 0.0976562 0.496094 " clip-rule="nonzero"/></clipPath><clipPath id="5bdb594d45"><path d="M 725.476562 0.496094 C 324.859375 0.496094 0.0976562 325.257812 0.0976562 725.875 C 0.0976562 1126.492188 324.859375 1451.253906 725.476562 1451.253906 C 1126.09375 1451.253906 1450.855469 1126.492188 1450.855469 725.875 C 1450.855469 325.257812 1126.09375 0.496094 725.476562 0.496094 Z M 725.476562 0.496094 " clip-rule="nonzero"/></clipPath><clipPath id="b403d30d8a"><rect x="0" width="1451" y="0" height="1452"/></clipPath><clipPath id="81c53c2edb"><rect x="0" width="1083" y="0" height="320"/></clipPath><clipPath id="c80509789e"><path d="M 0.285156 1010 L 1113.941406 1010 L 1113.941406 1169.429688 L 0.285156 1169.429688 Z M 0.285156 1010 " clip-rule="nonzero"/></clipPath><clipPath id="7960a90b92"><rect x="0" width="1114" y="0" height="160"/></clipPath><clipPath id="50b494709b"><path d="M 154 0.347656 L 929 0.347656 L 929 772.882812 L 154 772.882812 Z M 154 0.347656 " clip-rule="nonzero"/></clipPath><clipPath id="ecff2eb63f"><path d="M 485.34375 325.316406 L 599.605469 325.316406 L 599.605469 439.578125 L 485.34375 439.578125 Z M 485.34375 325.316406 " clip-rule="nonzero"/></clipPath><clipPath id="b88d1f239c"><path d="M 542.476562 325.316406 C 510.921875 325.316406 485.34375 350.894531 485.34375 382.449219 C 485.34375 414 510.921875 439.578125 542.476562 439.578125 C 574.027344 439.578125 599.605469 414 599.605469 382.449219 C 599.605469 350.894531 574.027344 325.316406 542.476562 325.316406 Z M 542.476562 325.316406 " clip-rule="nonzero"/></clipPath><clipPath id="bde8da2bd1"><path d="M 0.34375 0.316406 L 114.605469 0.316406 L 114.605469 114.578125 L 0.34375 114.578125 Z M 0.34375 0.316406 " clip-rule="nonzero"/></clipPath><clipPath id="0aa07851b2"><path d="M 57.476562 0.316406 C 25.921875 0.316406 0.34375 25.894531 0.34375 57.449219 C 0.34375 89 25.921875 114.578125 57.476562 114.578125 C 89.027344 114.578125 114.605469 89 114.605469 57.449219 C 114.605469 25.894531 89.027344 0.316406 57.476562 0.316406 Z M 57.476562 0.316406 " clip-rule="nonzero"/></clipPath><clipPath id="f13f54b34e"><rect x="0" width="115" y="0" height="115"/></clipPath><clipPath id="9b9074cce7"><rect x="0" width="1114" y="0" height="1170"/></clipPath></defs><g clip-path="url(#5709047128)"><g clip-path="url(#c28023baec)"><g transform="matrix(1, 0, 0, 1, 0, -0.000000000000254225)"><g clip-path="url(#fc72cf82d6)"><g clip-path="url(#dd10449a33)"><g clip-path="url(#33153bc5e9)"><path fill="#4f46e5" d="M 0 0 L 1500.351562 0 L 1500.351562 1500.351562 L 0 1500.351562 Z M 0 0 " fill-opacity="1" fill-rule="nonzero"/></g></g></g></g></g></g><g clip-path="url(#d831469536)"><g clip-path="url(#8ff0468f04)"><g transform="matrix(1, 0, 0, 1, 25, 24)"><g clip-path="url(#b403d30d8a)"><g clip-path="url(#d7fc36ccfc)"><g clip-path="url(#5bdb594d45)"><path fill="#ffffff" d="M 0.0976562 0.496094 L 1450.855469 0.496094 L 1450.855469 1451.253906 L 0.0976562 1451.253906 Z M 0.0976562 0.496094 " fill-opacity="1" fill-rule="nonzero"/></g></g></g></g></g></g><g transform="matrix(1, 0, 0, 1, 208, 81)"><g clip-path="url(#9b9074cce7)"><g transform="matrix(1, 0, 0, 1, 6, 762)"><g clip-path="url(#81c53c2edb)"><g fill="#0f172a" fill-opacity="1"><g transform="translate(0.1883, 234.065784)"><g><path d="M 62.1875 0 L 11.3125 0 L 11.3125 -189.40625 L 91.3125 -189.40625 C 107.332031 -189.40625 121.65625 -187.050781 134.28125 -182.34375 C 146.90625 -177.632812 156.894531 -170.144531 164.25 -159.875 C 171.601562 -149.601562 175.28125 -135.984375 175.28125 -119.015625 C 175.28125 -102.054688 171.648438 -88.394531 164.390625 -78.03125 C 157.140625 -67.664062 147.195312 -60.125 134.5625 -55.40625 C 121.9375 -50.695312 107.519531 -48.34375 91.3125 -48.34375 L 62.1875 -48.34375 Z M 91.875 -144.171875 L 62.1875 -144.171875 L 62.1875 -93.578125 L 91.875 -93.578125 C 111.664062 -93.578125 121.5625 -102.054688 121.5625 -119.015625 C 121.5625 -135.785156 111.664062 -144.171875 91.875 -144.171875 Z M 91.875 -144.171875 "/></g></g></g><g fill="#0f172a" fill-opacity="1"><g transform="translate(161.302103, 234.065784)"><g><path d="M 104.59375 2.265625 C 90.269531 2.265625 77.125 -0.226562 65.15625 -5.21875 C 53.195312 -10.21875 42.878906 -17.144531 34.203125 -26 C 25.535156 -34.863281 18.84375 -45.1875 14.125 -56.96875 C 9.414062 -68.75 7.0625 -81.421875 7.0625 -94.984375 C 7.0625 -108.554688 9.414062 -121.234375 14.125 -133.015625 C 18.84375 -144.796875 25.535156 -155.113281 34.203125 -163.96875 C 42.878906 -172.820312 53.195312 -179.742188 65.15625 -184.734375 C 77.125 -189.734375 90.269531 -192.234375 104.59375 -192.234375 C 119.113281 -192.234375 132.304688 -189.734375 144.171875 -184.734375 C 156.046875 -179.742188 166.316406 -172.820312 174.984375 -163.96875 C 183.660156 -155.113281 190.351562 -144.796875 195.0625 -133.015625 C 199.769531 -121.234375 202.125 -108.554688 202.125 -94.984375 C 202.125 -81.421875 199.769531 -68.75 195.0625 -56.96875 C 190.351562 -45.1875 183.660156 -34.863281 174.984375 -26 C 166.316406 -17.144531 156.046875 -10.21875 144.171875 -5.21875 C 132.304688 -0.226562 119.113281 2.265625 104.59375 2.265625 Z M 104.59375 -47.21875 C 119.300781 -47.21875 130.28125 -51.738281 137.53125 -60.78125 C 144.789062 -69.820312 148.421875 -81.222656 148.421875 -94.984375 C 148.421875 -108.742188 144.789062 -120.144531 137.53125 -129.1875 C 130.28125 -138.238281 119.300781 -142.765625 104.59375 -142.765625 C 89.894531 -142.765625 78.914062 -138.238281 71.65625 -129.1875 C 64.40625 -120.144531 60.78125 -108.742188 60.78125 -94.984375 C 60.78125 -81.222656 64.40625 -69.820312 71.65625 -60.78125 C 78.914062 -51.738281 89.894531 -47.21875 104.59375 -47.21875 Z M 104.59375 -47.21875 "/></g></g></g><g fill="#0f172a" fill-opacity="1"><g transform="translate(350.682903, 234.065784)"><g><path d="M 153.515625 0 L 11.3125 0 L 11.3125 -189.40625 L 62.1875 -189.40625 L 62.1875 -45.234375 L 153.515625 -45.234375 Z M 153.515625 0 "/></g></g></g><g fill="#0f172a" fill-opacity="1"><g transform="translate(487.204387, 234.065784)"><g><path d="M 55.6875 0 L 1.40625 0 L 68.421875 -189.40625 L 139.375 -189.40625 L 206.375 0 L 150.6875 0 L 139.09375 -35.34375 L 67.28125 -35.34375 Z M 90.46875 -105.453125 L 81.421875 -77.75 L 124.953125 -77.75 L 115.90625 -105.453125 L 103.1875 -152.9375 Z M 90.46875 -105.453125 "/></g></g></g><g fill="#0f172a" fill-opacity="1"><g transform="translate(675.171784, 234.065784)"><g><path d="M 62.1875 0 L 11.3125 0 L 11.3125 -189.40625 L 102.0625 -189.40625 C 116.757812 -189.40625 129.804688 -187.378906 141.203125 -183.328125 C 152.609375 -179.273438 161.5625 -172.867188 168.0625 -164.109375 C 174.5625 -155.347656 177.8125 -143.992188 177.8125 -130.046875 C 177.8125 -117.984375 175.316406 -107.992188 170.328125 -100.078125 C 165.335938 -92.160156 158.550781 -86.175781 149.96875 -82.125 C 141.394531 -78.070312 131.738281 -75.578125 121 -74.640625 C 130.800781 -72.179688 138.335938 -68.125 143.609375 -62.46875 C 148.890625 -56.820312 153.882812 -50.226562 158.59375 -42.6875 L 185.734375 0 L 127.78125 0 L 96.40625 -50.609375 C 92.632812 -56.828125 88.582031 -61.253906 84.25 -63.890625 C 79.914062 -66.523438 73.882812 -67.84375 66.15625 -67.84375 L 62.1875 -67.84375 Z M 102.625 -144.171875 L 62.1875 -144.171875 L 62.1875 -108.5625 L 102.625 -108.5625 C 116.945312 -108.5625 124.109375 -114.5 124.109375 -126.375 C 124.109375 -138.238281 116.945312 -144.171875 102.625 -144.171875 Z M 102.625 -144.171875 "/></g></g></g><g fill="#0f172a" fill-opacity="1"><g transform="translate(843.917614, 234.065784)"><g><path d="M 62.1875 0 L 11.3125 0 L 11.3125 -189.40625 L 62.1875 -189.40625 Z M 62.1875 0 "/></g></g></g><g fill="#0f172a" fill-opacity="1"><g transform="translate(897.617038, 234.065784)"><g><path d="M 98.953125 2.828125 C 80.671875 2.828125 63.328125 0.0976562 46.921875 -5.359375 C 30.523438 -10.828125 16.957031 -19.21875 6.21875 -30.53125 L 37.875 -71.53125 C 45.789062 -61.914062 55.6875 -54.65625 67.5625 -49.75 C 79.4375 -44.851562 90.835938 -42.40625 101.765625 -42.40625 C 108.367188 -42.40625 113.550781 -43.253906 117.3125 -44.953125 C 121.082031 -46.648438 122.96875 -49.476562 122.96875 -53.4375 C 122.96875 -58.332031 120.328125 -62.144531 115.046875 -64.875 C 109.773438 -67.613281 100.828125 -70.207031 88.203125 -72.65625 L 69.265625 -76.328125 C 58.515625 -78.398438 48.617188 -81.554688 39.578125 -85.796875 C 30.535156 -90.035156 23.28125 -95.972656 17.8125 -103.609375 C 12.34375 -111.242188 9.609375 -121 9.609375 -132.875 C 9.609375 -145.6875 12.953125 -156.472656 19.640625 -165.234375 C 26.335938 -174.003906 35.382812 -180.601562 46.78125 -185.03125 C 58.1875 -189.457031 70.863281 -191.671875 84.8125 -191.671875 C 103.28125 -191.671875 119.722656 -188.75 134.140625 -182.90625 C 148.554688 -177.0625 160.476562 -169.429688 169.90625 -160.015625 L 138.53125 -119.578125 C 130.988281 -127.492188 121.703125 -133.945312 110.671875 -138.9375 C 99.648438 -143.9375 89.050781 -146.4375 78.875 -146.4375 C 73.976562 -146.4375 69.925781 -145.585938 66.71875 -143.890625 C 63.507812 -142.203125 61.90625 -139.660156 61.90625 -136.265625 C 61.90625 -130.984375 64.546875 -127.117188 69.828125 -124.671875 C 75.109375 -122.222656 82.363281 -119.960938 91.59375 -117.890625 L 113.921875 -112.796875 C 134.660156 -108.085938 150.070312 -101.160156 160.15625 -92.015625 C 170.238281 -82.878906 175.28125 -70.488281 175.28125 -54.84375 C 175.28125 -42.03125 171.929688 -31.332031 165.234375 -22.75 C 158.546875 -14.175781 149.453125 -7.769531 137.953125 -3.53125 C 126.460938 0.707031 113.460938 2.828125 98.953125 2.828125 Z M 98.953125 2.828125 "/></g></g></g></g></g><g clip-path="url(#c80509789e)"><g transform="matrix(1, 0, 0, 1, -0.000000000000056843, 1010)"><g clip-path="url(#7960a90b92)"><g fill="#4f46e5" fill-opacity="1"><g transform="translate(8.178607, 127.456078)"><g><path d="M 30.15625 0 L 1.90625 -94.171875 L 23.40625 -94.171875 L 35.75 -53.3125 C 36.601562 -50.519531 37.410156 -47.570312 38.171875 -44.46875 C 38.929688 -41.375 39.695312 -37.492188 40.46875 -32.828125 C 41.226562 -37.492188 41.988281 -41.351562 42.75 -44.40625 C 43.519531 -47.457031 44.328125 -50.425781 45.171875 -53.3125 L 56.75 -94.171875 L 79.78125 -94.171875 L 90.859375 -53.3125 C 91.617188 -50.425781 92.378906 -47.414062 93.140625 -44.28125 C 93.910156 -41.144531 94.71875 -37.328125 95.5625 -32.828125 C 96.5 -37.578125 97.347656 -41.457031 98.109375 -44.46875 C 98.867188 -47.476562 99.675781 -50.34375 100.53125 -53.0625 L 113.125 -94.171875 L 134.125 -94.171875 L 105.359375 0 L 85.25 0 L 68.078125 -61.84375 L 50.390625 0 Z M 30.15625 0 "/></g></g></g><g fill="#4f46e5" fill-opacity="1"><g transform="translate(171.570172, 127.456078)"><g><path d="M 69.609375 0 L 9.796875 0 L 9.796875 -94.171875 L 69.609375 -94.171875 L 69.609375 -75.078125 L 30.40625 -75.078125 L 30.40625 -56.625 L 65.15625 -56.625 L 65.15625 -38.5625 L 30.40625 -38.5625 L 30.40625 -19.09375 L 69.609375 -19.09375 Z M 69.609375 0 "/></g></g></g><g fill="#4f46e5" fill-opacity="1"><g transform="translate(275.662182, 127.456078)"><g><path d="M 9.796875 0 L 9.796875 -94.171875 L 48.984375 -94.171875 C 58.492188 -94.171875 65.941406 -91.835938 71.328125 -87.171875 C 76.710938 -82.503906 79.40625 -76.140625 79.40625 -68.078125 C 79.40625 -57.816406 75.035156 -50.773438 66.296875 -46.953125 C 75.796875 -43.816406 80.546875 -36.816406 80.546875 -25.953125 C 80.546875 -17.640625 77.832031 -11.234375 72.40625 -6.734375 C 66.976562 -2.242188 59.171875 0 48.984375 0 Z M 46.828125 -76.09375 L 30.40625 -76.09375 L 30.40625 -55.609375 L 46.828125 -55.609375 C 54.460938 -55.609375 58.28125 -59.085938 58.28125 -66.046875 C 58.28125 -72.742188 54.460938 -76.09375 46.828125 -76.09375 Z M 47.84375 -38.296875 L 30.40625 -38.296875 L 30.40625 -18.0625 L 47.84375 -18.0625 C 55.5625 -18.0625 59.421875 -21.539062 59.421875 -28.5 C 59.421875 -35.03125 55.5625 -38.296875 47.84375 -38.296875 Z M 47.84375 -38.296875 "/></g></g></g><g fill="#4f46e5" fill-opacity="1"><g transform="translate(387.64381, 127.456078)"><g/></g></g><g fill="#4f46e5" fill-opacity="1"><g transform="translate(448.724551, 127.456078)"><g><path d="M 4.578125 -66.8125 C 4.578125 -72.488281 6.0625 -77.507812 9.03125 -81.875 C 12 -86.25 16.09375 -89.6875 21.3125 -92.1875 C 26.53125 -94.695312 32.488281 -95.953125 39.1875 -95.953125 C 45.976562 -95.953125 51.832031 -94.765625 56.75 -92.390625 C 61.675781 -90.015625 65.472656 -86.660156 68.140625 -82.328125 C 70.816406 -78.003906 72.15625 -72.875 72.15625 -66.9375 L 51.65625 -66.9375 C 51.65625 -70.238281 50.507812 -72.84375 48.21875 -74.75 C 45.9375 -76.664062 42.84375 -77.625 38.9375 -77.625 C 34.78125 -77.625 31.453125 -76.734375 28.953125 -74.953125 C 26.453125 -73.171875 25.203125 -70.707031 25.203125 -67.5625 C 25.203125 -64.6875 25.960938 -62.484375 27.484375 -60.953125 C 29.015625 -59.421875 31.429688 -58.316406 34.734375 -57.640625 L 48.859375 -54.71875 C 57.265625 -53.019531 63.5 -50.070312 67.5625 -45.875 C 71.632812 -41.675781 73.671875 -35.84375 73.671875 -28.375 C 73.671875 -22.351562 72.1875 -17.070312 69.21875 -12.53125 C 66.25 -7.988281 62.070312 -4.488281 56.6875 -2.03125 C 51.300781 0.425781 45.003906 1.65625 37.796875 1.65625 C 30.835938 1.65625 24.75 0.46875 19.53125 -1.90625 C 14.3125 -4.28125 10.28125 -7.648438 7.4375 -12.015625 C 4.601562 -16.390625 3.1875 -21.503906 3.1875 -27.359375 L 23.671875 -27.359375 C 23.671875 -23.960938 24.898438 -21.332031 27.359375 -19.46875 C 29.816406 -17.601562 33.335938 -16.671875 37.921875 -16.671875 C 42.585938 -16.671875 46.273438 -17.539062 48.984375 -19.28125 C 51.703125 -21.019531 53.0625 -23.375 53.0625 -26.34375 C 53.0625 -28.96875 52.40625 -31 51.09375 -32.4375 C 49.78125 -33.882812 47.550781 -34.90625 44.40625 -35.5 L 30.03125 -38.421875 C 13.0625 -41.898438 4.578125 -51.363281 4.578125 -66.8125 Z M 4.578125 -66.8125 "/></g></g></g><g fill="#4f46e5" fill-opacity="1"><g transform="translate(553.579974, 127.456078)"><g><path d="M 2.546875 -75.078125 L 2.546875 -94.171875 L 76.609375 -94.171875 L 76.609375 -75.078125 L 49.875 -75.078125 L 49.875 0 L 29.265625 0 L 29.265625 -75.078125 Z M 2.546875 -75.078125 "/></g></g></g><g fill="#4f46e5" fill-opacity="1"><g transform="translate(660.089727, 127.456078)"><g><path d="M 9.15625 -35.375 L 9.15625 -94.171875 L 29.78125 -94.171875 L 29.78125 -36.78125 C 29.78125 -30.84375 31.347656 -26.300781 34.484375 -23.15625 C 37.617188 -20.019531 42.070312 -18.453125 47.84375 -18.453125 C 53.695312 -18.453125 58.210938 -20.0625 61.390625 -23.28125 C 64.578125 -26.507812 66.171875 -31.007812 66.171875 -36.78125 L 66.171875 -94.171875 L 86.78125 -94.171875 L 86.78125 -35.375 C 86.78125 -27.90625 85.1875 -21.414062 82 -15.90625 C 78.820312 -10.394531 74.304688 -6.109375 68.453125 -3.046875 C 62.609375 0.00390625 55.738281 1.53125 47.84375 1.53125 C 40.039062 1.53125 33.234375 0.0234375 27.421875 -2.984375 C 21.609375 -5.992188 17.109375 -10.273438 13.921875 -15.828125 C 10.742188 -21.390625 9.15625 -27.90625 9.15625 -35.375 Z M 9.15625 -35.375 "/></g></g></g><g fill="#4f46e5" fill-opacity="1"><g transform="translate(783.396812, 127.456078)"><g><path d="M 46.703125 0 L 9.796875 0 L 9.796875 -94.171875 L 45.421875 -94.171875 C 54.671875 -94.171875 62.796875 -92.175781 69.796875 -88.1875 C 76.796875 -84.195312 82.285156 -78.640625 86.265625 -71.515625 C 90.253906 -64.390625 92.25 -56.160156 92.25 -46.828125 C 92.25 -37.660156 90.316406 -29.554688 86.453125 -22.515625 C 82.597656 -15.484375 77.253906 -9.972656 70.421875 -5.984375 C 63.597656 -1.992188 55.691406 0 46.703125 0 Z M 43.390625 -75.078125 L 30.40625 -75.078125 L 30.40625 -19.09375 L 44.671875 -19.09375 C 52.804688 -19.09375 59.144531 -21.53125 63.6875 -26.40625 C 68.226562 -31.28125 70.5 -38.085938 70.5 -46.828125 C 70.5 -55.734375 68.125 -62.664062 63.375 -67.625 C 58.625 -72.59375 51.960938 -75.078125 43.390625 -75.078125 Z M 43.390625 -75.078125 "/></g></g></g><g fill="#4f46e5" fill-opacity="1"><g transform="translate(907.594653, 127.456078)"><g><path d="M 30.40625 -94.171875 L 30.40625 0 L 9.796875 0 L 9.796875 -94.171875 Z M 30.40625 -94.171875 "/></g></g></g><g fill="#4f46e5" fill-opacity="1"><g transform="translate(975.165207, 127.456078)"><g><path d="M 96.84375 -47.203125 C 96.84375 -37.617188 94.890625 -29.15625 90.984375 -21.8125 C 87.078125 -14.476562 81.644531 -8.753906 74.6875 -4.640625 C 67.738281 -0.523438 59.679688 1.53125 50.515625 1.53125 C 41.441406 1.53125 33.445312 -0.523438 26.53125 -4.640625 C 19.613281 -8.753906 14.222656 -14.457031 10.359375 -21.75 C 6.503906 -29.050781 4.578125 -37.492188 4.578125 -47.078125 C 4.578125 -56.671875 6.523438 -65.132812 10.421875 -72.46875 C 14.328125 -79.800781 19.738281 -85.523438 26.65625 -89.640625 C 33.570312 -93.753906 41.566406 -95.8125 50.640625 -95.8125 C 59.804688 -95.8125 67.84375 -93.753906 74.75 -89.640625 C 81.664062 -85.523438 87.078125 -79.820312 90.984375 -72.53125 C 94.890625 -65.238281 96.84375 -56.796875 96.84375 -47.203125 Z M 75.078125 -47.203125 C 75.078125 -56.203125 72.910156 -63.242188 68.578125 -68.328125 C 64.253906 -73.421875 58.316406 -75.96875 50.765625 -75.96875 C 43.128906 -75.96875 37.148438 -73.421875 32.828125 -68.328125 C 28.503906 -63.242188 26.34375 -56.203125 26.34375 -47.203125 C 26.34375 -38.210938 28.503906 -31.148438 32.828125 -26.015625 C 37.148438 -20.890625 43.128906 -18.328125 50.765625 -18.328125 C 58.316406 -18.328125 64.253906 -20.910156 68.578125 -26.078125 C 72.910156 -31.253906 75.078125 -38.296875 75.078125 -47.203125 Z M 75.078125 -47.203125 "/></g></g></g></g></g></g><g clip-path="url(#50b494709b)"><path fill="#4f46e5" d="M 629.898438 442.953125 L 928.390625 387.890625 L 627.96875 336.691406 L 710.078125 217.875 L 595.125 299.984375 L 541.027344 0.527344 L 489.832031 301.917969 L 371.980469 217.875 L 453.121094 336.691406 L 154.632812 387.890625 L 453.121094 442.953125 L 371.980469 556.9375 L 489.832031 475.796875 L 541.027344 774.289062 L 596.089844 477.726562 L 710.078125 556.9375 Z M 629.898438 442.953125 " fill-opacity="1" fill-rule="nonzero"/></g><g clip-path="url(#ecff2eb63f)"><g clip-path="url(#b88d1f239c)"><g transform="matrix(1, 0, 0, 1, 485, 325)"><g clip-path="url(#f13f54b34e)"><g clip-path="url(#bde8da2bd1)"><g clip-path="url(#0aa07851b2)"><path fill="#ffffff" d="M 0.34375 0.316406 L 114.605469 0.316406 L 114.605469 114.578125 L 0.34375 114.578125 Z M 0.34375 0.316406 " fill-opacity="1" fill-rule="nonzero"/></g></g></g></g></g></g></g></g></svg>